<svg width="44" height="22" viewBox="0 0 44 22" fill="none" xmlns="http://www.w3.org/2000/svg">
<g clip-path="url(#clip0)">
<path d="M33.0001 1.00006H11.0001C5.47727 1.00006 1.00012 5.47719 1.00012 11C1.00012 16.5229 5.47727 21.0001 11.0001 21.0001H33.0001C38.523 21.0001 43.0001 16.5229 43.0001 11C43.0001 5.47719 38.523 1.00006 33.0001 1.00006Z" fill="#FF6AC1"/>
<path d="M37.8122 14.0331L37.0105 14.8126C36.8852 14.9375 36.6972 15 36.5405 15C36.3526 15 36.1959 14.9375 36.0706 14.8126L34.0001 12.7143L31.8895 14.8126C31.7641 14.9375 31.5762 15 31.4195 15C31.2316 15 31.0749 14.9375 30.9496 14.8126L30.1881 14.0189C30.0628 13.894 30.0001 13.7065 30.0001 13.5502C30.0001 13.394 30.0628 13.2065 30.1881 13.0815L32.2858 11L30.1881 8.8968C30.0628 8.77181 30.0001 8.58432 30.0001 8.42809C30.0001 8.27187 30.0628 8.08436 30.1881 7.95938L30.9697 7.1875C31.0951 7.06253 31.283 7.00003 31.4397 7.00003C31.6276 7.00003 31.7843 7.06253 31.9096 7.1875L34.0001 9.28574L36.1451 7.1875C36.2705 7.06253 36.4584 7.00003 36.6151 7.00003C36.803 7.00003 36.9597 7.06253 37.085 7.1875L37.8122 8.01691C37.9289 8.15001 38.0001 8.32938 38.0001 8.48561C38.0001 8.64183 37.9374 8.82934 37.8122 8.95432L35.7144 11L37.8122 13.0957C37.9375 13.2207 38.0001 13.4081 38.0001 13.5644C38.0001 13.7206 37.9374 13.9081 37.8122 14.0331H37.8122Z" fill="white"/>
<path d="M16.6718 9.17715L10.4639 14.8149C10.3402 14.9383 10.1547 15 10.0001 15C9.81461 15 9.66002 14.9383 9.53634 14.8149L6.18563 11.4629C6.06196 11.3395 6.00012 11.1543 6.00012 11C6.00012 10.8458 6.06196 10.6606 6.18563 10.5372L7.25062 9.47086C7.3743 9.34745 7.55981 9.28574 7.71441 9.28574C7.89992 9.28574 8.05451 9.34746 8.17819 9.47086L10.0001 11.5715L14.6792 7.18515C14.8029 7.06174 14.9884 7.00003 15.143 7.00003C15.3285 7.00003 15.4831 7.06175 15.6068 7.18515L16.6718 8.25149C16.7954 8.3749 16.8573 8.56006 16.8573 8.71432C16.8573 8.86857 16.7954 9.05374 16.6718 9.17715Z" fill="white"/>
<path d="M33.0001 22.0001C38.523 22.0001 43.0001 17.523 43.0001 12.0002C43.0001 6.47732 38.523 2.00018 33.0001 2.00018C27.4773 2.00018 23.0001 6.47732 23.0001 12.0002C23.0001 17.523 27.4773 22.0001 33.0001 22.0001Z" fill="url(#paint0_radial)"/>
<path d="M24.0001 12.0001C24.0001 16.9707 28.0296 21.0001 33.0001 21.0001C37.9707 21.0001 42.0001 16.9707 42.0001 12.0001C42.0001 7.02959 37.9707 3.00016 33.0001 3.00016C28.0296 3.00016 24.0001 7.02959 24.0001 12.0001Z" fill="url(#paint1_radial)"/>
<path d="M33.0001 19.0002C37.4184 19.0002 41.0001 15.4184 41.0001 11.0002C41.0001 6.58188 37.4184 3.00016 33.0001 3.00016C28.5818 3.00016 25.0001 6.58188 25.0001 11.0002C25.0001 15.4184 28.5818 19.0002 33.0001 19.0002Z" fill="#F6F6F6"/>
</g>
<defs>
<radialGradient id="paint0_radial" cx="0" cy="0" r="1" gradientUnits="userSpaceOnUse" gradientTransform="translate(33.0001 12.0002) scale(10)">
<stop stop-opacity="0.117647"/>
<stop offset="0.818182" stop-opacity="0.117647"/>
<stop offset="1" stop-color="#161616" stop-opacity="0"/>
</radialGradient>
<radialGradient id="paint1_radial" cx="0" cy="0" r="1" gradientUnits="userSpaceOnUse" gradientTransform="translate(33.0001 12.0003) rotate(90) scale(8.99999)">
<stop stop-opacity="0.235294"/>
<stop offset="0.782609" stop-opacity="0.196078"/>
<stop offset="1" stop-opacity="0"/>
</radialGradient>
<clipPath id="clip0">
<rect width="44.0003" height="22.0001" fill="white"/>
</clipPath>
</defs>
</svg>
