<svg width="40" height="24" viewBox="0 0 40 24" fill="none" xmlns="http://www.w3.org/2000/svg">
<path d="M28 24C34.6274 24 40 18.6274 40 12C40 5.37258 34.6274 0 28 0C21.3726 0 16 5.37258 16 12C16 18.6274 21.3726 24 28 24Z" fill="url(#paint0_radial)"/>
<path opacity="0.5" d="M9 4H31C34.878 4 38 7.122 38 11C38 14.878 34.878 18 31 18H9C5.122 18 2 14.878 2 11C2 7.122 5.122 4 9 4Z" fill="#FF6AC1"/>
<path d="M28.0064 21C33.5293 21 38.0064 16.5228 38.0064 11C38.0064 5.47715 33.5293 1 28.0064 1C22.4836 1 18.0064 5.47715 18.0064 11C18.0064 16.5228 22.4836 21 28.0064 21Z" fill="#FF6AC1"/>
<defs>
<radialGradient id="paint0_radial" cx="0" cy="0" r="1" gradientUnits="userSpaceOnUse" gradientTransform="translate(28 12) scale(12)">
<stop stop-opacity="0.5"/>
<stop offset="0.75" stop-opacity="0.5"/>
<stop offset="0.885867" stop-opacity="0.196078"/>
<stop offset="0.940996" stop-opacity="0.01"/>
<stop offset="0.985014" stop-opacity="0"/>
<stop offset="1" stop-opacity="0"/>
</radialGradient>
</defs>
</svg>
